<svg xmlns="http://www.w3.org/2000/svg" version="1.1" xmlns:xlink="http://www.w3.org/1999/xlink"
    xmlns:svgjs="http://svgjs.com/svgjs" width="512" height="512" x="0" y="0" viewBox="0 0 48 48"
    style="enable-background:new 0 0 512 512" xml:space="preserve" class="">
    <g>
        <path
            d="M3 24a1.059 1.059 0 0 0 .136-.009 77.375 77.375 0 0 0 21.274-6.079A77.1 77.1 0 0 0 43.248 5.884l-1.218 4.874a1 1 0 0 0 .727 1.212A1.025 1.025 0 0 0 43 12a1 1 0 0 0 .969-.758l2-8A1 1 0 0 0 45 2h-8a1 1 0 0 0 0 2h5.369A75.2 75.2 0 0 1 23.59 16.088a75.363 75.363 0 0 1-20.725 5.921A1 1 0 0 0 3 24zM45 44h-1V17a1 1 0 0 0-1-1H33a1 1 0 0 0-1 1v27h-2V23a1 1 0 0 0-1-1H19a1 1 0 0 0-1 1v21h-2V29a1 1 0 0 0-1-1H5a1 1 0 0 0-1 1v15H3a1 1 0 0 0 0 2h42a1 1 0 0 0 0-2zM34 18h8v26h-8zm-14 6h8v20h-8zM6 30h8v14H6z"
            fill="#000000" data-original="#000000" class=""></path>
    </g>
</svg>