<svg xmlns="http://www.w3.org/2000/svg" version="1.1" xmlns:xlink="http://www.w3.org/1999/xlink"
    xmlns:svgjs="http://svgjs.com/svgjs" width="512" height="512" x="0" y="0" viewBox="0 0 512 512"
    style="enable-background:new 0 0 512 512" xml:space="preserve" class="">
    <g>
        <path
            d="M512 312.907a8 8 0 0 1-2.825 6.101L374.99 432.823a7.993 7.993 0 0 1-8.536 1.159 8.003 8.003 0 0 1-4.638-7.26v-48.907h-219.63a8 8 0 0 1 0-16h227.63a8 8 0 0 1 8 8v39.632l113.817-96.54-113.817-96.539V256a8 8 0 0 1-8 8h-219.63v48.907a8.002 8.002 0 0 1-4.638 7.26 8.002 8.002 0 0 1-8.537-1.159L2.825 205.193a8 8 0 0 1 0-12.202L137.01 79.176a8 8 0 0 1 13.175 6.101v48.907h219.63a8 8 0 0 1 0 16h-227.63a8 8 0 0 1-8-8v-39.632l-113.817 96.54 113.817 96.54V256a8 8 0 0 1 8-8h219.63v-48.907a7.998 7.998 0 0 1 13.175-6.101l134.185 113.815a7.998 7.998 0 0 1 2.825 6.1z"
            fill="#000000" data-original="#000000"></path>
    </g>
</svg>